<svg width="15" height="14" viewBox="0 0 15 14" fill="none" xmlns="http://www.w3.org/2000/svg">
<path d="M3.7334 11.2V14H11.2001V11.2V9.33334H3.7334V11.2ZM4.66673 10.2667H10.2667V11.2H4.66673V10.2667ZM4.66673 12.1333H10.2667V13.0667H4.66673V12.1333Z" fill="black"/>
<path d="M11.2001 2.8V0H3.7334V2.8V4.66667H11.2001V2.8Z" fill="black"/>
<path d="M13.0667 2.79999H12.1333V4.66665V5.59999H2.8V4.66665V2.79999H1.86667C0.933333 2.79999 0 3.73332 0 4.66665V9.33332C0 10.2667 0.933333 11.2 1.86667 11.2H2.8V9.33332V8.39999H12.1333V9.33332V11.2H13.0667C14 11.2 14.9333 10.2667 14.9333 9.33332V4.66665C14.9333 3.73332 14 2.79999 13.0667 2.79999Z" fill="black"/>
</svg>
