<svg width="15" height="16" viewBox="0 0 15 16" fill="none" xmlns="http://www.w3.org/2000/svg">
<path d="M3.40818 5.43164H0.185547V15.1093H3.40818V5.43164Z" fill="#989898"/>
<path d="M13.9845 6.31554C13.3076 5.57658 12.4123 5.20703 11.2991 5.20703C10.8889 5.20703 10.5161 5.25748 10.1807 5.35846C9.8455 5.45936 9.56235 5.60093 9.33116 5.78325C9.10011 5.96556 8.91609 6.1348 8.77947 6.29098C8.64956 6.43933 8.52253 6.61213 8.39857 6.80761V5.43148H5.18555L5.1954 5.90029C5.202 6.21289 5.20525 7.17637 5.20525 8.79087C5.20525 10.4055 5.19875 12.5116 5.18568 15.1093H8.39857V9.70876C8.39857 9.3768 8.43418 9.11318 8.50594 8.9177C8.64276 8.58551 8.84925 8.30739 9.1261 8.08287C9.40292 7.85807 9.74623 7.74578 10.1565 7.74578C10.7162 7.74578 11.1282 7.93945 11.3919 8.32682C11.6555 8.71415 11.7873 9.24966 11.7873 9.93328V15.1089H15.0002V9.56243C15 8.1365 14.6617 7.05426 13.9845 6.31554Z" fill="#989898"/>
<path d="M1.81637 0.773438C1.27608 0.773438 0.838289 0.931429 0.502912 1.24711C0.167569 1.56285 0 1.96147 0 2.44335C0 2.91849 0.162746 3.31574 0.488272 3.63467C0.813696 3.95363 1.24344 4.11319 1.77728 4.11319H1.79681C2.34374 4.11319 2.78488 3.95376 3.12012 3.63467C3.45536 3.31574 3.61971 2.91863 3.61325 2.44335C3.60675 1.96151 3.44062 1.56285 3.11519 1.24711C2.78981 0.931293 2.35671 0.773438 1.81637 0.773438Z" fill="#989898"/>
</svg>
