<svg width="14" height="13" viewBox="0 0 14 13" fill="none" xmlns="http://www.w3.org/2000/svg">
<path d="M13.0023 10.2595C13.0298 10.4707 12.9655 10.6543 12.8095 10.8104L10.9779 12.6281C10.8953 12.7199 10.7874 12.798 10.6543 12.8622C10.5212 12.9265 10.3904 12.9678 10.2619 12.9861C10.2527 12.9861 10.2251 12.9885 10.1792 12.9931C10.1333 12.9977 10.0737 13 10.0002 13C9.82575 13 9.54342 12.9702 9.15323 12.9105C8.76305 12.8508 8.28567 12.7039 7.7211 12.4698C7.15639 12.2357 6.51606 11.8845 5.79998 11.4163C5.0839 10.9481 4.32187 10.3054 3.51396 9.48833C2.87131 8.85486 2.33882 8.24893 1.91651 7.67056C1.49419 7.09215 1.1545 6.55737 0.897443 6.0662C0.640359 5.57503 0.447563 5.12976 0.319032 4.73039C0.190501 4.33103 0.103284 3.98675 0.0573798 3.69756C0.011476 3.40836 -0.00688558 3.18114 0.00229519 3.01588C0.011476 2.85063 0.0160664 2.75882 0.0160664 2.74046C0.0344279 2.61193 0.0757414 2.4811 0.140007 2.34798C0.204272 2.21486 0.282309 2.10699 0.374117 2.02436L2.20568 0.192796C2.33421 0.0642654 2.4811 0 2.64636 0C2.76571 0 2.87129 0.0344279 2.9631 0.103284C3.0549 0.17214 3.13294 0.257062 3.1972 0.35805L4.67072 3.1536C4.75335 3.30049 4.7763 3.46115 4.73957 3.63559C4.70285 3.81002 4.62482 3.95691 4.50547 4.07626L3.83068 4.75105C3.81232 4.76941 3.79625 4.79925 3.78248 4.84056C3.76871 4.88188 3.76182 4.9163 3.76182 4.94385C3.79855 5.13664 3.88117 5.35698 4.0097 5.60486C4.11987 5.8252 4.28972 6.09374 4.51924 6.41048C4.74876 6.72721 5.07467 7.09213 5.49699 7.50526C5.91012 7.92762 6.27735 8.25579 6.59868 8.48994C6.91994 8.72396 7.18857 8.89617 7.40432 9.00634C7.62007 9.11651 7.78532 9.18307 7.90006 9.20595L8.07215 9.24041C8.09051 9.24041 8.12042 9.2335 8.16169 9.21975C8.203 9.20595 8.23284 9.18991 8.25122 9.17153L9.03615 8.3728C9.2015 8.22593 9.39421 8.15248 9.61457 8.15248C9.77069 8.15248 9.89456 8.18 9.98637 8.23511H10.0001L12.6579 9.80502C12.8508 9.92446 12.9655 10.0759 13.0023 10.2595Z" fill="black"/>
</svg>
