<svg width="58" height="57" viewBox="0 0 58 57" fill="none" xmlns="http://www.w3.org/2000/svg">
<path d="M20.8438 30.8612V35.9235C20.8438 36.2289 20.4205 36.4047 20.203 36.1891L14.8752 30.8612H5.4375C3.93856 30.8612 2.71875 29.6414 2.71875 28.1425V4.57996C2.71875 3.08102 3.93856 1.86121 5.4375 1.86121H23.5625C25.0614 1.86121 26.2812 3.08102 26.2812 4.57996V27.2362H28.0938V4.57996C28.0938 2.08142 26.061 0.0487061 23.5625 0.0487061H5.4375C2.93897 0.0487061 0.90625 2.08142 0.90625 4.57996V28.1425C0.90625 30.641 2.93897 32.6737 5.4375 32.6737H14.1248L18.9216 37.4714C19.3294 37.8774 19.8931 38.1112 20.4686 38.1112C21.6748 38.1112 22.6562 37.1297 22.6562 35.9235V32.6737H29V30.8612H20.8438Z" fill="black"/>
<path d="M21.75 11.83H20.8438V8.42517C20.8438 6.87277 20.2393 5.4128 19.1409 4.31442C18.7277 3.90117 18.1785 3.67371 17.5939 3.67371C16.3877 3.67371 15.4062 4.65517 15.4062 5.86139V8.89733C15.4062 10.3609 14.5933 11.6759 13.2847 12.3311C12.7537 12.5957 12.1601 12.7362 11.5674 12.7362H9.96875V10.9237H4.53125V29.0487H9.96875V27.2362H10.6611L11.4586 27.635C12.1211 27.9666 12.8642 28.1425 13.6073 28.1425H21.75C23.2489 28.1425 24.4688 26.9226 24.4688 25.4237C24.4688 24.725 24.196 24.0933 23.7619 23.6112C24.1969 23.1291 24.4688 22.4974 24.4688 21.7987C24.4688 21.1 24.196 20.4683 23.7619 19.9862C24.1969 19.5041 24.4688 18.8724 24.4688 18.1737C24.4688 17.475 24.196 16.8433 23.7619 16.3612C24.1969 15.8791 24.4688 15.2474 24.4688 14.5487C24.4688 13.0498 23.2489 11.83 21.75 11.83ZM8.15625 27.2362H6.34375V12.7362H8.15625V27.2362ZM21.75 26.33H13.6073C13.1452 26.33 12.683 26.2203 12.2697 26.0137L11.0889 25.4237H9.96875V14.5487H11.5674C12.4392 14.5487 13.3137 14.3421 14.0949 13.9524C16.0216 12.9881 17.2188 11.0515 17.2188 8.89733V5.86139C17.2188 5.55508 17.6438 5.38017 17.8595 5.59586C18.6153 6.35167 19.0312 7.3558 19.0312 8.42517V13.6425H21.75C22.2493 13.6425 22.6562 14.0494 22.6562 14.5487C22.6562 15.048 22.2493 15.455 21.75 15.455H19.0312V17.2675H21.75C22.2493 17.2675 22.6562 17.6744 22.6562 18.1737C22.6562 18.673 22.2493 19.08 21.75 19.08H19.0312V20.8925H21.75C22.2493 20.8925 22.6562 21.2994 22.6562 21.7987C22.6562 22.298 22.2493 22.705 21.75 22.705H19.0312V24.5175H21.75C22.2493 24.5175 22.6562 24.9244 22.6562 25.4237C22.6562 25.923 22.2493 26.33 21.75 26.33Z" fill="black"/>
<path d="M38.0625 14.5487C31.5556 14.5487 26.2812 19.8231 26.2812 26.33V27.2362C26.2812 31.636 28.8994 35.416 32.6576 37.1288C30.9222 35.0363 29.9062 32.3656 29.9062 29.5136V26.33L32.625 23.6112C34.9776 25.3757 37.8396 26.33 40.7812 26.33H46.2188V29.5136C46.2188 32.3647 45.2028 35.0363 43.4674 37.1288C47.2256 35.416 49.8438 31.636 49.8438 27.2362V26.33C49.8438 19.8231 44.5694 14.5487 38.0625 14.5487Z" fill="#DADADA"/>
<path d="M12.2969 50.9474L10.875 49.8762L9.45306 50.9474L8.95644 50.71C8.40816 50.4481 7.92059 50.0801 7.50825 49.6152L7.16841 49.2319L7.71306 47.4937L6.29297 46.4234L6.35006 45.9105C6.41984 45.2806 6.64459 44.5565 6.9355 44.021L7.19469 43.5452L8.93016 43.5533L9.46303 41.9366L9.97688 41.8305C10.5813 41.7064 11.1695 41.7064 11.774 41.8305L12.2842 41.9357L12.8288 43.5551L14.4601 43.5425L14.7202 44.02C15.1135 44.7441 15.3419 45.3794 15.4008 45.9105L15.4579 46.4234L14.0378 47.4937L14.5824 49.2319L14.2417 49.6152C13.8293 50.0801 13.3418 50.4481 12.7935 50.71L12.2969 50.9474Z" fill="#DADADA"/>
<path d="M50.4428 44.1849L42.8964 41.5214C42.2267 41.2858 41.779 40.675 41.7138 39.9781C45.047 37.6164 47.125 33.7558 47.125 29.5136V25.4237H40.7812C38.0543 25.4237 35.351 24.522 33.1687 22.8862L32.5398 22.4141L29 25.9548V29.5136C29 33.7558 31.078 37.6164 34.4112 39.9781C34.346 40.675 33.8974 41.2858 33.2277 41.5214L25.6813 44.1849C23.6794 44.8918 22.0092 46.2004 20.8428 47.8625V42.6425C20.8428 40.1439 18.8101 38.1112 16.3116 38.1112H14.4991V36.6739C14.5 35.4677 13.5185 34.4862 12.3123 34.4862C11.7368 34.4862 11.1732 34.72 10.7653 35.1269L7.78106 38.1112H5.4375C2.93897 38.1112 0.90625 40.1439 0.90625 42.6425V49.8925C0.90625 52.391 2.93897 54.4237 5.4375 54.4237H16.3125C17.3384 54.4237 18.2745 54.0685 19.0349 53.4912C19.0349 53.5229 19.0312 53.5537 19.0312 53.5854V56.2362H57.0938V53.5854C57.0938 49.3668 54.4212 45.5896 50.4428 44.1849ZM19.0312 49.8925C19.0312 51.3914 17.8114 52.6112 16.3125 52.6112H5.4375C3.93856 52.6112 2.71875 51.3914 2.71875 49.8925V42.6425C2.71875 41.1435 3.93856 39.9237 5.4375 39.9237H8.53144L12.0459 36.4093C12.2643 36.19 12.6875 36.3685 12.6875 36.6739V39.9237H16.3125C17.8114 39.9237 19.0312 41.1435 19.0312 42.6425V49.8925ZM42.3581 43.2533L42.8484 43.4264L41.9739 48.2349L39.4192 46.1913L42.3581 43.2533ZM38.0625 44.986L35.3111 42.2347C35.641 41.8685 35.8975 41.439 36.057 40.9686C36.6071 41.245 37.1789 41.4906 37.7761 41.6891L38.0625 41.7852L38.3489 41.69C38.9461 41.4906 39.5179 41.2459 40.068 40.9695C40.2275 41.4399 40.4831 41.8685 40.8139 42.2356L38.0625 44.986ZM30.8125 29.5136V26.7052L32.7256 24.7921C35.0973 26.3726 37.9284 27.2362 40.7812 27.2362H45.3125V29.5136C45.3125 34.1636 42.4116 38.2879 38.0625 39.8712C33.7134 38.287 30.8125 34.1636 30.8125 29.5136ZM33.7669 43.2533L36.7058 46.1922L34.1511 48.2358L33.2766 43.4273L33.7669 43.2533ZM55.2812 54.4237H49.8438V50.7987H48.0312V54.4237H28.0938V50.7987H26.2812V54.4237H20.8438V53.5854C20.8438 50.1335 23.0305 47.0432 26.2858 45.895L31.5457 44.0381L32.9114 51.5491L38.0625 47.4284L43.2136 51.5491L44.5793 44.0381L49.8392 45.895C53.0945 47.0432 55.2812 50.1344 55.2812 53.5854V54.4237Z" fill="black"/>
</svg>
